<mxfile host="app.diagrams.net" modified="2024-02-09T15:59:31.910Z" agent="Mozilla/5.0 (Windows NT 10.0; Win64; x64) AppleWebKit/537.36 (KHTML, like Gecko) Chrome/121.0.0.0 Safari/537.36" etag="8eWBpVYenW4DVl3U_7gk" version="23.1.1" type="google">
  <diagram name="หน้า-1" id="DxGY_YMVSK-81Snu7bg1">
    <mxGraphModel grid="1" page="1" gridSize="10" guides="1" tooltips="1" connect="1" arrows="1" fold="1" pageScale="1" pageWidth="827" pageHeight="1169" math="0" shadow="0">
      <root>
        <mxCell id="0" />
        <mxCell id="1" parent="0" />
        <mxCell id="q5MeiqD0VN0eIVZIWNT3-1" value="Customer" style="shape=umlActor;verticalLabelPosition=bottom;verticalAlign=top;html=1;outlineConnect=0;" vertex="1" parent="1">
          <mxGeometry x="40" y="400" width="30" height="60" as="geometry" />
        </mxCell>
        <mxCell id="q5MeiqD0VN0eIVZIWNT3-4" value="" style="rounded=0;whiteSpace=wrap;html=1;" vertex="1" parent="1">
          <mxGeometry x="160" y="-220" width="640" height="1420" as="geometry" />
        </mxCell>
        <mxCell id="q5MeiqD0VN0eIVZIWNT3-5" value="Application" style="shape=umlActor;verticalLabelPosition=bottom;verticalAlign=top;html=1;outlineConnect=0;" vertex="1" parent="1">
          <mxGeometry x="890" y="400" width="30" height="60" as="geometry" />
        </mxCell>
        <mxCell id="q5MeiqD0VN0eIVZIWNT3-7" value="Search By &lt;br&gt;Name" style="ellipse;whiteSpace=wrap;html=1;" vertex="1" parent="1">
          <mxGeometry x="300" y="-180" width="120" height="80" as="geometry" />
        </mxCell>
        <mxCell id="q5MeiqD0VN0eIVZIWNT3-8" value="Search By &lt;br&gt;Popularity" style="ellipse;whiteSpace=wrap;html=1;" vertex="1" parent="1">
          <mxGeometry x="540" y="-180" width="120" height="80" as="geometry" />
        </mxCell>
        <mxCell id="q5MeiqD0VN0eIVZIWNT3-9" value="&lt;span data-lucid-content=&quot;{&amp;quot;t&amp;quot;:&amp;quot;Search Restaurant&amp;quot;,&amp;quot;m&amp;quot;:[{&amp;quot;s&amp;quot;:0,&amp;quot;n&amp;quot;:&amp;quot;a&amp;quot;,&amp;quot;v&amp;quot;:&amp;quot;center&amp;quot;},{&amp;quot;s&amp;quot;:0,&amp;quot;n&amp;quot;:&amp;quot;fc&amp;quot;,&amp;quot;v&amp;quot;:&amp;quot;Regular&amp;quot;,&amp;quot;e&amp;quot;:17},{&amp;quot;s&amp;quot;:0,&amp;quot;n&amp;quot;:&amp;quot;fid&amp;quot;,&amp;quot;v&amp;quot;:2,&amp;quot;e&amp;quot;:17},{&amp;quot;s&amp;quot;:0,&amp;quot;n&amp;quot;:&amp;quot;s&amp;quot;,&amp;quot;v&amp;quot;:17.777777777777775,&amp;quot;e&amp;quot;:17},{&amp;quot;s&amp;quot;:0,&amp;quot;n&amp;quot;:&amp;quot;fsp&amp;quot;,&amp;quot;v&amp;quot;:&amp;quot;ss_presetShapeStyle1_textStyle&amp;quot;,&amp;quot;e&amp;quot;:17},{&amp;quot;s&amp;quot;:0,&amp;quot;n&amp;quot;:&amp;quot;fsp2&amp;quot;,&amp;quot;v&amp;quot;:&amp;quot;ss_presetShapeStyle1_textStyle&amp;quot;,&amp;quot;e&amp;quot;:17}]}&quot; data-lucid-type=&quot;application/vnd.lucid.text&quot;&gt;&lt;span style=&quot;color:#000000;font-size:13.33333333333333px;&quot;&gt;Search Restaurant&lt;/span&gt;&lt;/span&gt;" style="ellipse;whiteSpace=wrap;html=1;" vertex="1" parent="1">
          <mxGeometry x="420" y="-80" width="120" height="80" as="geometry" />
        </mxCell>
        <mxCell id="q5MeiqD0VN0eIVZIWNT3-10" value="&lt;span data-lucid-content=&quot;{&amp;quot;t&amp;quot;:&amp;quot;Choose Restaurant&amp;quot;,&amp;quot;m&amp;quot;:[{&amp;quot;s&amp;quot;:0,&amp;quot;n&amp;quot;:&amp;quot;a&amp;quot;,&amp;quot;v&amp;quot;:&amp;quot;center&amp;quot;},{&amp;quot;s&amp;quot;:0,&amp;quot;n&amp;quot;:&amp;quot;fc&amp;quot;,&amp;quot;v&amp;quot;:&amp;quot;Regular&amp;quot;,&amp;quot;e&amp;quot;:17},{&amp;quot;s&amp;quot;:0,&amp;quot;n&amp;quot;:&amp;quot;fid&amp;quot;,&amp;quot;v&amp;quot;:2,&amp;quot;e&amp;quot;:17},{&amp;quot;s&amp;quot;:0,&amp;quot;n&amp;quot;:&amp;quot;s&amp;quot;,&amp;quot;v&amp;quot;:17.777777777777775,&amp;quot;e&amp;quot;:17},{&amp;quot;s&amp;quot;:0,&amp;quot;n&amp;quot;:&amp;quot;fsp&amp;quot;,&amp;quot;v&amp;quot;:&amp;quot;ss_presetShapeStyle1_textStyle&amp;quot;,&amp;quot;e&amp;quot;:17},{&amp;quot;s&amp;quot;:0,&amp;quot;n&amp;quot;:&amp;quot;fsp2&amp;quot;,&amp;quot;v&amp;quot;:&amp;quot;ss_presetShapeStyle1_textStyle&amp;quot;,&amp;quot;e&amp;quot;:17}]}&quot; data-lucid-type=&quot;application/vnd.lucid.text&quot;&gt;&lt;span style=&quot;color:#000000;font-size:13.33333333333333px;&quot;&gt;Choose Restaurant&lt;/span&gt;&lt;/span&gt;" style="ellipse;whiteSpace=wrap;html=1;" vertex="1" parent="1">
          <mxGeometry x="420" y="20" width="120" height="80" as="geometry" />
        </mxCell>
        <mxCell id="q5MeiqD0VN0eIVZIWNT3-11" value="&lt;span data-lucid-content=&quot;{&amp;quot;t&amp;quot;:&amp;quot;Choose Food&amp;quot;,&amp;quot;m&amp;quot;:[{&amp;quot;s&amp;quot;:0,&amp;quot;n&amp;quot;:&amp;quot;a&amp;quot;,&amp;quot;v&amp;quot;:&amp;quot;center&amp;quot;},{&amp;quot;s&amp;quot;:0,&amp;quot;n&amp;quot;:&amp;quot;fsp&amp;quot;,&amp;quot;v&amp;quot;:&amp;quot;ss_presetShapeStyle1_textStyle&amp;quot;,&amp;quot;e&amp;quot;:11},{&amp;quot;s&amp;quot;:0,&amp;quot;n&amp;quot;:&amp;quot;fsp2&amp;quot;,&amp;quot;v&amp;quot;:&amp;quot;ss_presetShapeStyle1_textStyle&amp;quot;,&amp;quot;e&amp;quot;:11},{&amp;quot;s&amp;quot;:0,&amp;quot;n&amp;quot;:&amp;quot;fc&amp;quot;,&amp;quot;v&amp;quot;:&amp;quot;Regular&amp;quot;,&amp;quot;e&amp;quot;:11},{&amp;quot;s&amp;quot;:0,&amp;quot;n&amp;quot;:&amp;quot;fid&amp;quot;,&amp;quot;v&amp;quot;:2,&amp;quot;e&amp;quot;:11},{&amp;quot;s&amp;quot;:0,&amp;quot;n&amp;quot;:&amp;quot;s&amp;quot;,&amp;quot;v&amp;quot;:17.777777777777775,&amp;quot;e&amp;quot;:11}]}&quot; data-lucid-type=&quot;application/vnd.lucid.text&quot;&gt;&lt;span style=&quot;color:#000000;font-size:13.33333333333333px;&quot;&gt;Choose Food&lt;/span&gt;&lt;/span&gt;" style="ellipse;whiteSpace=wrap;html=1;" vertex="1" parent="1">
          <mxGeometry x="420" y="120" width="120" height="80" as="geometry" />
        </mxCell>
        <mxCell id="q5MeiqD0VN0eIVZIWNT3-12" value="Choose Menu&lt;span data-lucid-content=&quot;{&amp;quot;t&amp;quot;:&amp;quot;Confirm Order&amp;quot;,&amp;quot;m&amp;quot;:[{&amp;quot;s&amp;quot;:0,&amp;quot;n&amp;quot;:&amp;quot;a&amp;quot;,&amp;quot;v&amp;quot;:&amp;quot;center&amp;quot;},{&amp;quot;s&amp;quot;:0,&amp;quot;n&amp;quot;:&amp;quot;fc&amp;quot;,&amp;quot;v&amp;quot;:&amp;quot;Regular&amp;quot;,&amp;quot;e&amp;quot;:13},{&amp;quot;s&amp;quot;:0,&amp;quot;n&amp;quot;:&amp;quot;fid&amp;quot;,&amp;quot;v&amp;quot;:2,&amp;quot;e&amp;quot;:13},{&amp;quot;s&amp;quot;:0,&amp;quot;n&amp;quot;:&amp;quot;s&amp;quot;,&amp;quot;v&amp;quot;:17.777777777777775,&amp;quot;e&amp;quot;:13},{&amp;quot;s&amp;quot;:0,&amp;quot;n&amp;quot;:&amp;quot;fsp&amp;quot;,&amp;quot;v&amp;quot;:&amp;quot;ss_presetShapeStyle1_textStyle&amp;quot;,&amp;quot;e&amp;quot;:13},{&amp;quot;s&amp;quot;:0,&amp;quot;n&amp;quot;:&amp;quot;fsp2&amp;quot;,&amp;quot;v&amp;quot;:&amp;quot;ss_presetShapeStyle1_textStyle&amp;quot;,&amp;quot;e&amp;quot;:13}]}&quot; data-lucid-type=&quot;application/vnd.lucid.text&quot;&gt;&lt;/span&gt;" style="ellipse;whiteSpace=wrap;html=1;" vertex="1" parent="1">
          <mxGeometry x="420" y="220" width="120" height="80" as="geometry" />
        </mxCell>
        <mxCell id="q5MeiqD0VN0eIVZIWNT3-13" value="Pays" style="ellipse;whiteSpace=wrap;html=1;" vertex="1" parent="1">
          <mxGeometry x="300" y="320" width="120" height="80" as="geometry" />
        </mxCell>
        <mxCell id="q5MeiqD0VN0eIVZIWNT3-14" value="Locate&lt;br&gt;Address" style="ellipse;whiteSpace=wrap;html=1;" vertex="1" parent="1">
          <mxGeometry x="540" y="320" width="120" height="80" as="geometry" />
        </mxCell>
        <mxCell id="q5MeiqD0VN0eIVZIWNT3-15" value="" style="endArrow=none;html=1;rounded=0;exitX=1;exitY=0;exitDx=0;exitDy=0;entryX=0;entryY=1;entryDx=0;entryDy=0;endFill=0;startArrow=block;startFill=0;" edge="1" parent="1" source="q5MeiqD0VN0eIVZIWNT3-13" target="q5MeiqD0VN0eIVZIWNT3-12">
          <mxGeometry width="50" height="50" relative="1" as="geometry">
            <mxPoint x="460" y="200" as="sourcePoint" />
            <mxPoint x="510" y="150" as="targetPoint" />
          </mxGeometry>
        </mxCell>
        <mxCell id="q5MeiqD0VN0eIVZIWNT3-37" value="Include" style="edgeLabel;html=1;align=center;verticalAlign=middle;resizable=0;points=[];" connectable="0" vertex="1" parent="q5MeiqD0VN0eIVZIWNT3-15">
          <mxGeometry x="0.063" relative="1" as="geometry">
            <mxPoint as="offset" />
          </mxGeometry>
        </mxCell>
        <mxCell id="q5MeiqD0VN0eIVZIWNT3-16" value="" style="endArrow=none;html=1;rounded=0;exitX=0;exitY=0;exitDx=0;exitDy=0;entryX=1;entryY=1;entryDx=0;entryDy=0;endFill=0;startArrow=blockThin;startFill=0;" edge="1" parent="1" source="q5MeiqD0VN0eIVZIWNT3-14" target="q5MeiqD0VN0eIVZIWNT3-12">
          <mxGeometry width="50" height="50" relative="1" as="geometry">
            <mxPoint x="392" y="322" as="sourcePoint" />
            <mxPoint x="448" y="298" as="targetPoint" />
          </mxGeometry>
        </mxCell>
        <mxCell id="q5MeiqD0VN0eIVZIWNT3-38" value="Include" style="edgeLabel;html=1;align=center;verticalAlign=middle;resizable=0;points=[];" connectable="0" vertex="1" parent="q5MeiqD0VN0eIVZIWNT3-16">
          <mxGeometry x="-0.084" relative="1" as="geometry">
            <mxPoint x="-1" as="offset" />
          </mxGeometry>
        </mxCell>
        <mxCell id="q5MeiqD0VN0eIVZIWNT3-17" value="" style="endArrow=block;dashed=1;html=1;rounded=0;exitX=1;exitY=1;exitDx=0;exitDy=0;entryX=0.097;entryY=0.202;entryDx=0;entryDy=0;entryPerimeter=0;startArrow=none;startFill=0;endFill=0;" edge="1" parent="1" source="q5MeiqD0VN0eIVZIWNT3-7" target="q5MeiqD0VN0eIVZIWNT3-9">
          <mxGeometry width="50" height="50" relative="1" as="geometry">
            <mxPoint x="450" y="20" as="sourcePoint" />
            <mxPoint x="500" y="-30" as="targetPoint" />
          </mxGeometry>
        </mxCell>
        <mxCell id="q5MeiqD0VN0eIVZIWNT3-18" value="" style="endArrow=block;dashed=1;html=1;rounded=0;endFill=0;entryX=0.937;entryY=0.243;entryDx=0;entryDy=0;entryPerimeter=0;" edge="1" parent="1" source="q5MeiqD0VN0eIVZIWNT3-8" target="q5MeiqD0VN0eIVZIWNT3-9">
          <mxGeometry width="50" height="50" relative="1" as="geometry">
            <mxPoint x="450" y="20" as="sourcePoint" />
            <mxPoint x="540" y="-60" as="targetPoint" />
          </mxGeometry>
        </mxCell>
        <mxCell id="q5MeiqD0VN0eIVZIWNT3-19" value="&lt;span data-lucid-content=&quot;{&amp;quot;t&amp;quot;:&amp;quot;search menu from restaurant&amp;quot;,&amp;quot;m&amp;quot;:[]}&quot; data-lucid-type=&quot;application/vnd.lucid.text&quot;&gt;&lt;span&gt;Search Menu&lt;br&gt;From Restaurant&lt;/span&gt;&lt;/span&gt;" style="ellipse;whiteSpace=wrap;html=1;" vertex="1" parent="1">
          <mxGeometry x="600" y="790" width="120" height="80" as="geometry" />
        </mxCell>
        <mxCell id="q5MeiqD0VN0eIVZIWNT3-20" value="Confirm Order" style="ellipse;whiteSpace=wrap;html=1;" vertex="1" parent="1">
          <mxGeometry x="600" y="890" width="120" height="80" as="geometry" />
        </mxCell>
        <mxCell id="q5MeiqD0VN0eIVZIWNT3-21" value="Send Notification" style="ellipse;whiteSpace=wrap;html=1;" vertex="1" parent="1">
          <mxGeometry x="600" y="990" width="120" height="80" as="geometry" />
        </mxCell>
        <mxCell id="q5MeiqD0VN0eIVZIWNT3-22" value="Restaurant" style="shape=umlActor;verticalLabelPosition=bottom;verticalAlign=top;html=1;outlineConnect=0;" vertex="1" parent="1">
          <mxGeometry x="890" y="760" width="30" height="60" as="geometry" />
        </mxCell>
        <mxCell id="q5MeiqD0VN0eIVZIWNT3-24" value="&lt;span data-lucid-content=&quot;{&amp;quot;t&amp;quot;:&amp;quot;Open Order menuml-use-case-block-text-value&amp;quot;,&amp;quot;m&amp;quot;:[]}&quot; data-lucid-type=&quot;application/vnd.lucid.text&quot;&gt;&lt;span&gt;Open Order&lt;br&gt;menuml-use-case-block-text-value&lt;/span&gt;&lt;/span&gt;" style="ellipse;whiteSpace=wrap;html=1;" vertex="1" parent="1">
          <mxGeometry x="420" y="430" width="120" height="80" as="geometry" />
        </mxCell>
        <mxCell id="q5MeiqD0VN0eIVZIWNT3-25" value="Choose Order" style="ellipse;whiteSpace=wrap;html=1;" vertex="1" parent="1">
          <mxGeometry x="420" y="550" width="120" height="80" as="geometry" />
        </mxCell>
        <mxCell id="q5MeiqD0VN0eIVZIWNT3-26" value="Cancel Order" style="ellipse;whiteSpace=wrap;html=1;" vertex="1" parent="1">
          <mxGeometry x="300" y="650" width="120" height="80" as="geometry" />
        </mxCell>
        <mxCell id="q5MeiqD0VN0eIVZIWNT3-27" value="Accept Order" style="ellipse;whiteSpace=wrap;html=1;" vertex="1" parent="1">
          <mxGeometry x="540" y="650" width="120" height="80" as="geometry" />
        </mxCell>
        <mxCell id="q5MeiqD0VN0eIVZIWNT3-28" value="View Current Order" style="ellipse;whiteSpace=wrap;html=1;" vertex="1" parent="1">
          <mxGeometry x="420" y="730" width="120" height="80" as="geometry" />
        </mxCell>
        <mxCell id="q5MeiqD0VN0eIVZIWNT3-29" value="" style="endArrow=block;dashed=1;html=1;rounded=0;endFill=0;entryX=0.5;entryY=0;entryDx=0;entryDy=0;exitX=0.5;exitY=1;exitDx=0;exitDy=0;" edge="1" parent="1" source="q5MeiqD0VN0eIVZIWNT3-24" target="q5MeiqD0VN0eIVZIWNT3-25">
          <mxGeometry width="50" height="50" relative="1" as="geometry">
            <mxPoint x="574" y="-78" as="sourcePoint" />
            <mxPoint x="542" y="-51" as="targetPoint" />
          </mxGeometry>
        </mxCell>
        <mxCell id="q5MeiqD0VN0eIVZIWNT3-36" value="Include" style="edgeLabel;html=1;align=center;verticalAlign=middle;resizable=0;points=[];" connectable="0" vertex="1" parent="q5MeiqD0VN0eIVZIWNT3-29">
          <mxGeometry x="-0.11" y="1" relative="1" as="geometry">
            <mxPoint as="offset" />
          </mxGeometry>
        </mxCell>
        <mxCell id="q5MeiqD0VN0eIVZIWNT3-30" value="" style="endArrow=block;dashed=1;html=1;rounded=0;endFill=0;entryX=0;entryY=0;entryDx=0;entryDy=0;exitX=1;exitY=1;exitDx=0;exitDy=0;" edge="1" parent="1" source="q5MeiqD0VN0eIVZIWNT3-25" target="q5MeiqD0VN0eIVZIWNT3-27">
          <mxGeometry width="50" height="50" relative="1" as="geometry">
            <mxPoint x="490" y="520" as="sourcePoint" />
            <mxPoint x="490" y="560" as="targetPoint" />
          </mxGeometry>
        </mxCell>
        <mxCell id="q5MeiqD0VN0eIVZIWNT3-34" value="Extend" style="edgeLabel;html=1;align=center;verticalAlign=middle;resizable=0;points=[];" connectable="0" vertex="1" parent="q5MeiqD0VN0eIVZIWNT3-30">
          <mxGeometry x="-0.1943" y="1" relative="1" as="geometry">
            <mxPoint as="offset" />
          </mxGeometry>
        </mxCell>
        <mxCell id="q5MeiqD0VN0eIVZIWNT3-31" value="" style="endArrow=block;dashed=1;html=1;rounded=0;endFill=0;entryX=1;entryY=0;entryDx=0;entryDy=0;exitX=0;exitY=1;exitDx=0;exitDy=0;" edge="1" parent="1" source="q5MeiqD0VN0eIVZIWNT3-25" target="q5MeiqD0VN0eIVZIWNT3-26">
          <mxGeometry width="50" height="50" relative="1" as="geometry">
            <mxPoint x="532" y="628" as="sourcePoint" />
            <mxPoint x="568" y="652" as="targetPoint" />
          </mxGeometry>
        </mxCell>
        <mxCell id="q5MeiqD0VN0eIVZIWNT3-35" value="Extend" style="edgeLabel;html=1;align=center;verticalAlign=middle;resizable=0;points=[];" connectable="0" vertex="1" parent="q5MeiqD0VN0eIVZIWNT3-31">
          <mxGeometry x="-0.0525" relative="1" as="geometry">
            <mxPoint as="offset" />
          </mxGeometry>
        </mxCell>
        <mxCell id="q5MeiqD0VN0eIVZIWNT3-32" value="Succss Order" style="ellipse;whiteSpace=wrap;html=1;" vertex="1" parent="1">
          <mxGeometry x="420" y="860" width="120" height="80" as="geometry" />
        </mxCell>
        <mxCell id="q5MeiqD0VN0eIVZIWNT3-33" value="Include" style="endArrow=block;dashed=1;html=1;rounded=0;endFill=0;entryX=0.5;entryY=0;entryDx=0;entryDy=0;exitX=0.5;exitY=1;exitDx=0;exitDy=0;" edge="1" parent="1" source="q5MeiqD0VN0eIVZIWNT3-28" target="q5MeiqD0VN0eIVZIWNT3-32">
          <mxGeometry width="50" height="50" relative="1" as="geometry">
            <mxPoint x="448" y="628" as="sourcePoint" />
            <mxPoint x="412" y="652" as="targetPoint" />
          </mxGeometry>
        </mxCell>
        <mxCell id="q5MeiqD0VN0eIVZIWNT3-40" value="" style="endArrow=none;html=1;rounded=0;exitX=1;exitY=0.3333333333333333;exitDx=0;exitDy=0;exitPerimeter=0;entryX=0;entryY=0.5;entryDx=0;entryDy=0;" edge="1" parent="1" source="q5MeiqD0VN0eIVZIWNT3-1" target="q5MeiqD0VN0eIVZIWNT3-9">
          <mxGeometry width="50" height="50" relative="1" as="geometry">
            <mxPoint x="330" y="180" as="sourcePoint" />
            <mxPoint x="380" y="130" as="targetPoint" />
            <Array as="points">
              <mxPoint x="120" y="-40" />
            </Array>
          </mxGeometry>
        </mxCell>
        <mxCell id="q5MeiqD0VN0eIVZIWNT3-41" value="" style="endArrow=none;html=1;rounded=0;exitX=1;exitY=0.5;exitDx=0;exitDy=0;entryX=0;entryY=0.3333333333333333;entryDx=0;entryDy=0;entryPerimeter=0;" edge="1" parent="1" source="q5MeiqD0VN0eIVZIWNT3-9" target="q5MeiqD0VN0eIVZIWNT3-5">
          <mxGeometry width="50" height="50" relative="1" as="geometry">
            <mxPoint x="550" y="170" as="sourcePoint" />
            <mxPoint x="600" y="120" as="targetPoint" />
            <Array as="points">
              <mxPoint x="840" y="-40" />
            </Array>
          </mxGeometry>
        </mxCell>
        <mxCell id="q5MeiqD0VN0eIVZIWNT3-42" value="" style="endArrow=none;html=1;rounded=0;exitX=1;exitY=0.3333333333333333;exitDx=0;exitDy=0;exitPerimeter=0;entryX=0;entryY=0.5;entryDx=0;entryDy=0;" edge="1" parent="1" source="q5MeiqD0VN0eIVZIWNT3-1" target="q5MeiqD0VN0eIVZIWNT3-10">
          <mxGeometry width="50" height="50" relative="1" as="geometry">
            <mxPoint x="380" y="240" as="sourcePoint" />
            <mxPoint x="430" y="190" as="targetPoint" />
            <Array as="points">
              <mxPoint x="120" y="60" />
            </Array>
          </mxGeometry>
        </mxCell>
        <mxCell id="q5MeiqD0VN0eIVZIWNT3-43" value="" style="endArrow=none;html=1;rounded=0;entryX=0;entryY=0.5;entryDx=0;entryDy=0;exitX=1;exitY=0.3333333333333333;exitDx=0;exitDy=0;exitPerimeter=0;" edge="1" parent="1" source="q5MeiqD0VN0eIVZIWNT3-1" target="q5MeiqD0VN0eIVZIWNT3-11">
          <mxGeometry width="50" height="50" relative="1" as="geometry">
            <mxPoint x="70" y="340" as="sourcePoint" />
            <mxPoint x="430" y="70" as="targetPoint" />
            <Array as="points">
              <mxPoint x="120" y="160" />
            </Array>
          </mxGeometry>
        </mxCell>
        <mxCell id="q5MeiqD0VN0eIVZIWNT3-44" value="" style="endArrow=none;html=1;rounded=0;entryX=0;entryY=0.5;entryDx=0;entryDy=0;exitX=1;exitY=0.3333333333333333;exitDx=0;exitDy=0;exitPerimeter=0;" edge="1" parent="1" source="q5MeiqD0VN0eIVZIWNT3-1" target="q5MeiqD0VN0eIVZIWNT3-12">
          <mxGeometry width="50" height="50" relative="1" as="geometry">
            <mxPoint x="70" y="340" as="sourcePoint" />
            <mxPoint x="430" y="170" as="targetPoint" />
            <Array as="points">
              <mxPoint x="120" y="260" />
            </Array>
          </mxGeometry>
        </mxCell>
        <mxCell id="q5MeiqD0VN0eIVZIWNT3-45" value="" style="endArrow=none;html=1;rounded=0;exitX=1;exitY=0.5;exitDx=0;exitDy=0;entryX=0;entryY=0.3333333333333333;entryDx=0;entryDy=0;entryPerimeter=0;" edge="1" parent="1" source="q5MeiqD0VN0eIVZIWNT3-10" target="q5MeiqD0VN0eIVZIWNT3-5">
          <mxGeometry width="50" height="50" relative="1" as="geometry">
            <mxPoint x="540" y="190" as="sourcePoint" />
            <mxPoint x="590" y="140" as="targetPoint" />
            <Array as="points">
              <mxPoint x="840" y="60" />
            </Array>
          </mxGeometry>
        </mxCell>
        <mxCell id="q5MeiqD0VN0eIVZIWNT3-46" value="" style="endArrow=none;html=1;rounded=0;exitX=1;exitY=0.5;exitDx=0;exitDy=0;entryX=0;entryY=0.3333333333333333;entryDx=0;entryDy=0;entryPerimeter=0;" edge="1" parent="1" source="q5MeiqD0VN0eIVZIWNT3-11" target="q5MeiqD0VN0eIVZIWNT3-5">
          <mxGeometry width="50" height="50" relative="1" as="geometry">
            <mxPoint x="540" y="190" as="sourcePoint" />
            <mxPoint x="590" y="140" as="targetPoint" />
            <Array as="points">
              <mxPoint x="840" y="160" />
            </Array>
          </mxGeometry>
        </mxCell>
        <mxCell id="q5MeiqD0VN0eIVZIWNT3-47" value="" style="endArrow=none;html=1;rounded=0;exitX=1;exitY=0.5;exitDx=0;exitDy=0;entryX=0;entryY=0.3333333333333333;entryDx=0;entryDy=0;entryPerimeter=0;" edge="1" parent="1" source="q5MeiqD0VN0eIVZIWNT3-12" target="q5MeiqD0VN0eIVZIWNT3-5">
          <mxGeometry width="50" height="50" relative="1" as="geometry">
            <mxPoint x="540" y="190" as="sourcePoint" />
            <mxPoint x="590" y="140" as="targetPoint" />
            <Array as="points">
              <mxPoint x="840" y="260" />
            </Array>
          </mxGeometry>
        </mxCell>
        <mxCell id="q5MeiqD0VN0eIVZIWNT3-48" value="Rider" style="shape=umlActor;verticalLabelPosition=bottom;verticalAlign=top;html=1;outlineConnect=0;" vertex="1" parent="1">
          <mxGeometry x="40" y="800" width="30" height="60" as="geometry" />
        </mxCell>
        <mxCell id="q5MeiqD0VN0eIVZIWNT3-49" value="Pickup Food" style="ellipse;whiteSpace=wrap;html=1;" vertex="1" parent="1">
          <mxGeometry x="420" y="1070" width="120" height="80" as="geometry" />
        </mxCell>
        <mxCell id="q5MeiqD0VN0eIVZIWNT3-50" value="Delivery Food" style="ellipse;whiteSpace=wrap;html=1;" vertex="1" parent="1">
          <mxGeometry x="170" y="460" width="120" height="80" as="geometry" />
        </mxCell>
        <mxCell id="q5MeiqD0VN0eIVZIWNT3-51" value="" style="endArrow=none;html=1;rounded=0;exitX=1;exitY=0.3333333333333333;exitDx=0;exitDy=0;exitPerimeter=0;entryX=0.5;entryY=1;entryDx=0;entryDy=0;" edge="1" parent="1" source="q5MeiqD0VN0eIVZIWNT3-48" target="q5MeiqD0VN0eIVZIWNT3-50">
          <mxGeometry width="50" height="50" relative="1" as="geometry">
            <mxPoint x="310" y="650" as="sourcePoint" />
            <mxPoint x="360" y="600" as="targetPoint" />
          </mxGeometry>
        </mxCell>
        <mxCell id="q5MeiqD0VN0eIVZIWNT3-52" value="" style="endArrow=none;html=1;rounded=0;exitX=0.5;exitY=0;exitDx=0;exitDy=0;entryX=1;entryY=0.3333333333333333;entryDx=0;entryDy=0;entryPerimeter=0;" edge="1" parent="1" source="q5MeiqD0VN0eIVZIWNT3-50" target="q5MeiqD0VN0eIVZIWNT3-1">
          <mxGeometry width="50" height="50" relative="1" as="geometry">
            <mxPoint x="310" y="480" as="sourcePoint" />
            <mxPoint x="360" y="430" as="targetPoint" />
            <Array as="points">
              <mxPoint x="200" y="420" />
            </Array>
          </mxGeometry>
        </mxCell>
        <mxCell id="q5MeiqD0VN0eIVZIWNT3-53" value="" style="endArrow=none;html=1;rounded=0;exitX=1;exitY=0.3333333333333333;exitDx=0;exitDy=0;exitPerimeter=0;entryX=0;entryY=0.5;entryDx=0;entryDy=0;" edge="1" parent="1" source="q5MeiqD0VN0eIVZIWNT3-48" target="q5MeiqD0VN0eIVZIWNT3-24">
          <mxGeometry width="50" height="50" relative="1" as="geometry">
            <mxPoint x="310" y="630" as="sourcePoint" />
            <mxPoint x="360" y="580" as="targetPoint" />
            <Array as="points">
              <mxPoint x="350" y="470" />
            </Array>
          </mxGeometry>
        </mxCell>
        <mxCell id="q5MeiqD0VN0eIVZIWNT3-54" value="" style="endArrow=none;html=1;rounded=0;exitX=1;exitY=0.3333333333333333;exitDx=0;exitDy=0;exitPerimeter=0;entryX=0;entryY=0.5;entryDx=0;entryDy=0;" edge="1" parent="1" source="q5MeiqD0VN0eIVZIWNT3-48" target="q5MeiqD0VN0eIVZIWNT3-28">
          <mxGeometry width="50" height="50" relative="1" as="geometry">
            <mxPoint x="310" y="660" as="sourcePoint" />
            <mxPoint x="360" y="610" as="targetPoint" />
            <Array as="points">
              <mxPoint x="250" y="770" />
            </Array>
          </mxGeometry>
        </mxCell>
        <mxCell id="q5MeiqD0VN0eIVZIWNT3-55" value="" style="endArrow=none;html=1;rounded=0;exitX=1;exitY=0.5;exitDx=0;exitDy=0;entryX=0;entryY=0.3333333333333333;entryDx=0;entryDy=0;entryPerimeter=0;" edge="1" parent="1" source="q5MeiqD0VN0eIVZIWNT3-28" target="q5MeiqD0VN0eIVZIWNT3-5">
          <mxGeometry width="50" height="50" relative="1" as="geometry">
            <mxPoint x="670" y="680" as="sourcePoint" />
            <mxPoint x="720" y="630" as="targetPoint" />
            <Array as="points">
              <mxPoint x="650" y="770" />
            </Array>
          </mxGeometry>
        </mxCell>
        <mxCell id="q5MeiqD0VN0eIVZIWNT3-56" value="" style="endArrow=none;html=1;rounded=0;exitX=1;exitY=0.5;exitDx=0;exitDy=0;entryX=0;entryY=0.3333333333333333;entryDx=0;entryDy=0;entryPerimeter=0;" edge="1" parent="1" source="q5MeiqD0VN0eIVZIWNT3-24" target="q5MeiqD0VN0eIVZIWNT3-5">
          <mxGeometry width="50" height="50" relative="1" as="geometry">
            <mxPoint x="530" y="610" as="sourcePoint" />
            <mxPoint x="580" y="560" as="targetPoint" />
            <Array as="points">
              <mxPoint x="650" y="470" />
            </Array>
          </mxGeometry>
        </mxCell>
        <mxCell id="q5MeiqD0VN0eIVZIWNT3-57" value="" style="endArrow=none;html=1;rounded=0;exitX=1;exitY=0.3333333333333333;exitDx=0;exitDy=0;exitPerimeter=0;entryX=0;entryY=0.5;entryDx=0;entryDy=0;" edge="1" parent="1" source="q5MeiqD0VN0eIVZIWNT3-48" target="q5MeiqD0VN0eIVZIWNT3-49">
          <mxGeometry width="50" height="50" relative="1" as="geometry">
            <mxPoint x="400" y="950" as="sourcePoint" />
            <mxPoint x="450" y="900" as="targetPoint" />
            <Array as="points">
              <mxPoint x="250" y="1110" />
            </Array>
          </mxGeometry>
        </mxCell>
        <mxCell id="q5MeiqD0VN0eIVZIWNT3-58" value="" style="endArrow=none;html=1;rounded=0;exitX=1;exitY=0.5;exitDx=0;exitDy=0;entryX=0;entryY=0.3333333333333333;entryDx=0;entryDy=0;entryPerimeter=0;" edge="1" parent="1" source="q5MeiqD0VN0eIVZIWNT3-49" target="q5MeiqD0VN0eIVZIWNT3-22">
          <mxGeometry width="50" height="50" relative="1" as="geometry">
            <mxPoint x="580" y="910" as="sourcePoint" />
            <mxPoint x="630" y="860" as="targetPoint" />
            <Array as="points">
              <mxPoint x="750" y="1110" />
            </Array>
          </mxGeometry>
        </mxCell>
        <mxCell id="q5MeiqD0VN0eIVZIWNT3-59" value="" style="endArrow=none;html=1;rounded=0;entryX=0;entryY=0.3333333333333333;entryDx=0;entryDy=0;entryPerimeter=0;exitX=1;exitY=0.5;exitDx=0;exitDy=0;" edge="1" parent="1" source="q5MeiqD0VN0eIVZIWNT3-19" target="q5MeiqD0VN0eIVZIWNT3-5">
          <mxGeometry width="50" height="50" relative="1" as="geometry">
            <mxPoint x="660" y="770" as="sourcePoint" />
            <mxPoint x="710" y="720" as="targetPoint" />
            <Array as="points" />
          </mxGeometry>
        </mxCell>
        <mxCell id="q5MeiqD0VN0eIVZIWNT3-60" value="" style="endArrow=none;html=1;rounded=0;entryX=0;entryY=0.3333333333333333;entryDx=0;entryDy=0;entryPerimeter=0;exitX=1;exitY=0.5;exitDx=0;exitDy=0;" edge="1" parent="1" source="q5MeiqD0VN0eIVZIWNT3-20" target="q5MeiqD0VN0eIVZIWNT3-5">
          <mxGeometry width="50" height="50" relative="1" as="geometry">
            <mxPoint x="730" y="840" as="sourcePoint" />
            <mxPoint x="900" y="430" as="targetPoint" />
            <Array as="points" />
          </mxGeometry>
        </mxCell>
        <mxCell id="q5MeiqD0VN0eIVZIWNT3-61" value="" style="endArrow=none;html=1;rounded=0;entryX=0;entryY=0.3333333333333333;entryDx=0;entryDy=0;entryPerimeter=0;exitX=1;exitY=0.5;exitDx=0;exitDy=0;" edge="1" parent="1" source="q5MeiqD0VN0eIVZIWNT3-21" target="q5MeiqD0VN0eIVZIWNT3-5">
          <mxGeometry width="50" height="50" relative="1" as="geometry">
            <mxPoint x="730" y="940" as="sourcePoint" />
            <mxPoint x="900" y="430" as="targetPoint" />
            <Array as="points" />
          </mxGeometry>
        </mxCell>
        <mxCell id="q5MeiqD0VN0eIVZIWNT3-62" value="" style="endArrow=none;html=1;rounded=0;exitX=1;exitY=0.5;exitDx=0;exitDy=0;entryX=0;entryY=0.3333333333333333;entryDx=0;entryDy=0;entryPerimeter=0;" edge="1" parent="1" source="q5MeiqD0VN0eIVZIWNT3-19" target="q5MeiqD0VN0eIVZIWNT3-22">
          <mxGeometry width="50" height="50" relative="1" as="geometry">
            <mxPoint x="830" y="800" as="sourcePoint" />
            <mxPoint x="880" y="750" as="targetPoint" />
          </mxGeometry>
        </mxCell>
        <mxCell id="q5MeiqD0VN0eIVZIWNT3-63" value="" style="endArrow=none;html=1;rounded=0;exitX=1;exitY=0.5;exitDx=0;exitDy=0;entryX=0;entryY=0.3333333333333333;entryDx=0;entryDy=0;entryPerimeter=0;" edge="1" parent="1" source="q5MeiqD0VN0eIVZIWNT3-20" target="q5MeiqD0VN0eIVZIWNT3-22">
          <mxGeometry width="50" height="50" relative="1" as="geometry">
            <mxPoint x="730" y="840" as="sourcePoint" />
            <mxPoint x="900" y="790" as="targetPoint" />
          </mxGeometry>
        </mxCell>
        <mxCell id="q5MeiqD0VN0eIVZIWNT3-64" value="" style="endArrow=none;html=1;rounded=0;exitX=1;exitY=0.5;exitDx=0;exitDy=0;entryX=0;entryY=0.3333333333333333;entryDx=0;entryDy=0;entryPerimeter=0;" edge="1" parent="1" source="q5MeiqD0VN0eIVZIWNT3-21" target="q5MeiqD0VN0eIVZIWNT3-22">
          <mxGeometry width="50" height="50" relative="1" as="geometry">
            <mxPoint x="730" y="940" as="sourcePoint" />
            <mxPoint x="900" y="790" as="targetPoint" />
          </mxGeometry>
        </mxCell>
        <mxCell id="q5MeiqD0VN0eIVZIWNT3-66" value="Food Order" style="text;html=1;strokeColor=none;fillColor=none;align=center;verticalAlign=middle;whiteSpace=wrap;rounded=0;" vertex="1" parent="1">
          <mxGeometry x="430" y="-210" width="100" height="30" as="geometry" />
        </mxCell>
      </root>
    </mxGraphModel>
  </diagram>
</mxfile>
